<svg id="Capa_1" data-name="Capa 1" xmlns="http://www.w3.org/2000/svg" viewBox="0 0 32 32">
    <title>adjunto-positivo</title>
    <path class="cls-1" d="M10.18,32a5.46,5.46,0,0,1-3.69-1.65L2.9,26.76a5.44,5.44,0,0,1-1.65-3.7,5.17,5.17,0,0,1,1.53-3.81L20.49,1.53a5.33,5.33,0,0,1,6-1,4,4,0,0,1,1.19.84L31,4.63A1.46,1.46,0,0,1,28.91,6.7l-3-3A2.44,2.44,0,0,0,24.61,3a2.3,2.3,0,0,0-2.05.64L4.84,21.32a2.27,2.27,0,0,0-.63,2,2.38,2.38,0,0,0,.69,1.26L8.68,28.4a2.29,2.29,0,0,0,3.25,0l12.7-12.7a2.3,2.3,0,0,0-2.05-3.88,2.44,2.44,0,0,0-1.26.7L11,22.79A1.46,1.46,0,0,1,9,20.73L19.31,10.39a5.22,5.22,0,1,1,7.39,7.38L14,30.47A5.2,5.2,0,0,1,10.18,32Z"/>
</svg>