<svg id="Capa_1" data-name="Capa 1" xmlns="http://www.w3.org/2000/svg" viewBox="0 0 32 32">
<title>cara-disgusto</title>
<path class="cls-1" d="M16,31A15,15,0,1,1,31,16,15,15,0,0,1,16,31ZM16,0A16,16,0,1,0,32,16,16,16,0,0,0,16,0Z"/>
<path class="cls-1" d="M21.47,14.29a1.62,1.62,0,0,0,1.69-1.65,1.63,1.63,0,1,0-3.26,0A1.62,1.62,0,0,0,21.47,14.29Z"/>
<path class="cls-1" d="M10.5,11a1.7,1.7,0,0,0-1.63,1.61,1.64,1.64,0,1,0,3.28.12A1.7,1.7,0,0,0,10.5,11Z"/>
<path class="cls-1" d="M17.29,18.25a6.68,6.68,0,0,0-4.44,4.86.73.73,0,0,0,.55.87l.16,0a.73.73,0,0,0,.71-.56,5.24,5.24,0,0,1,8.63-2.7.73.73,0,0,0,1-1.08A6.7,6.7,0,0,0,17.29,18.25Z"/>
</svg>
