<svg id="Capa_1" data-name="Capa 1" xmlns="http://www.w3.org/2000/svg" viewBox="0 0 32 32"><defs><style>.cls-1{fill:#3772ff;}</style></defs><title>ICONOS</title><path d="M24,20.52a.72.72,0,0,1-1,.05,5.19,5.19,0,0,0-8.55,2.67.71.71,0,0,1-.7.56.5.5,0,0,1-.17,0,.73.73,0,0,1-.54-.86,6.57,6.57,0,0,1,4.4-4.81A6.65,6.65,0,0,1,24,19.5.72.72,0,0,1,24,20.52ZM10.7,14.18a1.62,1.62,0,0,1-1.62-1.69,1.66,1.66,0,0,1,1.61-1.6,1.68,1.68,0,0,1,1.64,1.71A1.65,1.65,0,0,1,10.7,14.18Zm11-3.29a1.65,1.65,0,0,1,1.56,1.65,1.62,1.62,0,0,1-1.68,1.64A1.6,1.6,0,0,1,20,12.54,1.66,1.66,0,0,1,21.68,10.89ZM16.14.35A15.52,15.52,0,1,0,31.66,15.87,15.52,15.52,0,0,0,16.14.35Z"/></svg>
