<svg id="Capa_1" data-name="Capa 1" xmlns="http://www.w3.org/2000/svg" viewBox="0 0 32 32"><defs><style>.cls-1{fill:#3772ff;}</style></defs><title>ICONOS</title><path class="cls-1" d="M2.3,22.14A1.56,1.56,0,0,1,.83,21.09,16,16,0,0,1,12.55.38a1.55,1.55,0,1,1,.66,3A12.91,12.91,0,0,0,3.76,20.1a1.54,1.54,0,0,1-1,2A1.4,1.4,0,0,1,2.3,22.14Z"/><path class="cls-1" d="M29.62,22.38a1.58,1.58,0,0,1-.52-.09,1.56,1.56,0,0,1-.94-2A12.9,12.9,0,0,0,18.87,3.42a1.55,1.55,0,1,1,.69-3,16,16,0,0,1,11.52,21A1.54,1.54,0,0,1,29.62,22.38Z"/><path class="cls-1" d="M16,32A16,16,0,0,1,4,26.59a1.54,1.54,0,1,1,2.32-2,12.91,12.91,0,0,0,19.28.06,1.55,1.55,0,1,1,2.31,2.07A16,16,0,0,1,16,32Z"/></svg>
