<svg id="Capa_1" data-name="Capa 1" xmlns="http://www.w3.org/2000/svg" viewBox="0 0 32 32">
    <title>carta-positivo</title>
    <path class="cls-1" d="M28,24.23a.89.89,0,0,1,0,1.26.92.92,0,0,1-.66.28.89.89,0,0,1-.61-.25L18.85,18l-2.24,2a.88.88,0,0,1-.6.23.82.82,0,0,1-.58-.23L13.26,18l-8,7.46a.87.87,0,0,1-.61.24A.91.91,0,0,1,4,25.42a.88.88,0,0,1,0-1.25l7.89-7.37L4,9.72A.9.9,0,1,1,5.21,8.38l8.55,7.67.14.13s0,0,0,0L16,18.09l10.8-9.66A.9.9,0,1,1,28,9.76l-7.83,7ZM30.17,4.61H1.83A1.83,1.83,0,0,0,0,6.44v21A1.83,1.83,0,0,0,1.83,29.3H30.17A1.83,1.83,0,0,0,32,27.47v-21A1.83,1.83,0,0,0,30.17,4.61Z"/>
</svg>