<svg id="Capa_1" 
data-name="Capa 1" xmlns="http://www.w3.org/2000/svg" viewBox="0 0 32 32">
<title>documento</title>
<path class="cls-1" d="M26.19,7.24H22.25a.37.37,0,0,1-.37-.37V2.76a.36.36,0,0,1,.63-.25l3.94,4.1A.37.37,0,0,1,26.19,7.24Zm-3,10.43a.43.43,0,0,1-.43.43H8.73a.43.43,0,0,1-.43-.43v-.05a.42.42,0,0,1,.43-.42H22.81a.43.43,0,0,1,.43.42Zm0,3a.43.43,0,0,1-.43.43H8.73a.43.43,0,0,1-.43-.43v-.05a.43.43,0,0,1,.43-.43H22.81a.43.43,0,0,1,.43.43Zm0,3a.43.43,0,0,1-.43.42H8.73a.42.42,0,0,1-.43-.42v-.05a.43.43,0,0,1,.43-.43H22.81a.43.43,0,0,1,.43.43ZM27.68,6.29,21.92.54A1.81,1.81,0,0,0,20.62,0H5.16A1.84,1.84,0,0,0,3.32,1.84V30.16A1.84,1.84,0,0,0,5.16,32H26.38a1.83,1.83,0,0,0,1.83-1.84V7.59A1.86,1.86,0,0,0,27.68,6.29Z"/>
</svg>