<svg id="Capa_1" data-name="Capa 1" xmlns="http://www.w3.org/2000/svg" viewBox="0 0 32 32"><defs><style>.cls-1{fill:#3772ff;}</style></defs><title>ICONOS</title><path class="cls-1" d="M29.62,5.35l-3-3,.74-.74a2.1,2.1,0,1,1,3,3Zm-.74.74-3-3,.37-.37,3,3Zm-.75.75-3-3,.38-.37,3,3ZM4.77,30.12l-1.65.44-.36.1L2.05,30l-.71-.71.1-.36.44-1.65a.39.39,0,0,1,.65-.18l1.21,1.21L5,29.47A.39.39,0,0,1,4.77,30.12ZM30.77.81A2.84,2.84,0,0,0,27,.72L2.87,24.81A8.88,8.88,0,0,0,.94,27.75L0,30.86A1,1,0,0,0,1.14,32l3.11-.93a8.88,8.88,0,0,0,2.94-1.93L31.35,5A2.88,2.88,0,0,0,30.77.81Z"/></svg>