<svg id="Capa_1" data-name="Capa 1" xmlns="http://www.w3.org/2000/svg" viewBox="0 0 32 32">
    <defs>
        <style>.cls-1{fill:#3772ff;}</style>
    </defs>
    <path class="cls-1" d="M20.07,27.2H11.93v-.58A2,2,0,0,0,13.41,26a3.69,3.69,0,0,0,.32-2V15.26a3.55,3.55,0,0,0-.37-2,2,2,0,0,0-1.43-.51v-.6h6.32v12a3.59,3.59,0,0,0,.37,2,2,2,0,0,0,1.45.51ZM14.23,5.53A2.42,2.42,0,0,1,16,4.8a2.48,2.48,0,0,1,2.5,2.5,2.37,2.37,0,0,1-.73,1.76,2.5,2.5,0,0,1-3.53,0,2.4,2.4,0,0,1-.72-1.76A2.44,2.44,0,0,1,14.23,5.53ZM16,0A16,16,0,1,0,32,16,16,16,0,0,0,16,0Z" />
</svg>