<svg id="Capa_1" data-name="Capa 1" xmlns="http://www.w3.org/2000/svg" viewBox="0 0 32 32">
    <defs>
        <style>.cls-1{fill:#3772ff;}</style>
    </defs>
    <path class="cls-1" d="M15.86,5a2.41,2.41,0,0,1,2.43,2.42,2.33,2.33,0,0,1-.71,1.71,2.37,2.37,0,0,1-1.72.71,2.41,2.41,0,0,1-2.41-2.42,2.34,2.34,0,0,1,.7-1.71A2.3,2.3,0,0,1,15.86,5Zm2.2,7.09V23.7a3.52,3.52,0,0,0,.36,2,2,2,0,0,0,1.41.49v.56H11.91v-.56a1.91,1.91,0,0,0,1.44-.56,3.51,3.51,0,0,0,.32-1.92V15.15a3.46,3.46,0,0,0-.36-2,2,2,0,0,0-1.4-.5v-.58Z" />
    <path class="cls-1" d="M15.87,1A14.89,14.89,0,1,0,30.76,15.87,14.91,14.91,0,0,0,15.87,1Zm0,30.76A15.87,15.87,0,1,1,31.74,15.87,15.89,15.89,0,0,1,15.87,31.74Z" />
</svg>