<?xml version="1.0" encoding="utf-8"?>
<!-- Generator: Adobe Illustrator 23.0.5, SVG Export Plug-In . SVG Version: 6.00 Build 0)  -->
<svg version="1.1" id="Capa_1" xmlns="http://www.w3.org/2000/svg" xmlns:xlink="http://www.w3.org/1999/xlink" x="0px" y="0px"
	 viewBox="0 0 32 32" style="enable-background:new 0 0 32 32;" xml:space="preserve">
	  <title>informacion</title>
<style type="text/css">
	.st0{fill:#3772FF;}
	.st1{fill-rule:evenodd;clip-rule:evenodd;fill:#3772FF;}
	.st2{opacity:0.9961;fill:#FFAB00;}
</style>
<path class="st2" d="M17.67,17.56c-0.01,1.24-1.14,2.03-2.25,1.62c-0.65-0.24-1.09-0.81-1.09-1.5c-0.01-3.42-0.01-6.85,0-10.27
	c0-0.89,0.75-1.59,1.63-1.6c0.91-0.02,1.69,0.65,1.7,1.56c0.03,1.72,0.01,3.45,0.01,5.18h0.01C17.68,14.21,17.69,15.89,17.67,17.56z
	 M15.97,26.2c-0.92-0.01-1.66-0.78-1.65-1.71c0.01-0.93,0.78-1.69,1.7-1.66c0.93,0.02,1.67,0.78,1.66,1.71
	C17.66,25.46,16.89,26.21,15.97,26.2z M16,0C7.16,0,0,7.16,0,16c0,8.84,7.16,16,16,16c8.84,0,16-7.16,16-16C32,7.16,24.84,0,16,0z"
	/>
</svg>
