<svg id="Capa_1" data-name="Capa 1" xmlns="http://www.w3.org/2000/svg" viewBox="0 0 32 32">
    <path d="M23.27,28.12a1.1,1.1,0,0,1-1.14,1,1,1,0,0,1-1.06-1l.54-16.93A1.45,1.45,0,0,1,23,9.77a1.29,1.29,0,0,1,1.26,1.42Zm-6,.07a1.12,1.12,0,0,1-1.21,1,1.1,1.1,0,0,1-1.2-1l-.25-17.06a1.45,1.45,0,0,1,2.9,0Zm-7.64.89a1.14,1.14,0,0,1-1.19-1L7.33,11.19A1.31,1.31,0,0,1,8.64,9.77a1.48,1.48,0,0,1,1.45,1.42l.61,16.93A1,1,0,0,1,9.6,29.08ZM28.28,3.73h-.8a.79.79,0,0,1-.79-.8V2.4a.8.8,0,0,0-.8-.8h-6.4a.8.8,0,0,1-.8-.8A.79.79,0,0,0,17.9,0H14.17a.8.8,0,0,0-.8.8.8.8,0,0,1-.8.8H6.18a.8.8,0,0,0-.8.8v.53a.8.8,0,0,1-.8.8h-.8a.8.8,0,0,0-.8.8V6.66a.8.8,0,0,0,.6.77L6.12,31a1.18,1.18,0,0,0,1.16,1h17.5a1.16,1.16,0,0,0,1.16-1L28.48,7.43a.79.79,0,0,0,.6-.77V4.53A.8.8,0,0,0,28.28,3.73Z" />
</svg>