<svg id="Capa_1" data-name="Capa 1" xmlns="http://www.w3.org/2000/svg" viewBox="0 0 31.99 31.99">
    <title>pdf-positivo</title>
    <path class="cls-1" d="M4.26,27.07a4.93,4.93,0,0,1-.57,0,1.33,1.33,0,0,1-1.13-1.31q0-4.18,0-8.39A1.35,1.35,0,0,1,3.91,16h.35V3.48A3.4,3.4,0,0,1,7.75,0H20.29a.5.5,0,0,1,.4.16c2.58,2.59,5.18,5.17,7.77,7.75a.44.44,0,0,1,.15.36q0,10.12,0,20.25A3.39,3.39,0,0,1,25.13,32H7.71a3.4,3.4,0,0,1-3.45-3.47ZM26.48,8.87H22.22a2.36,2.36,0,0,1-2.48-2.46V2.06h-12A1.33,1.33,0,0,0,6.34,3.5V16H22.58a1.37,1.37,0,0,1,1.48,1.48v8.1A1.84,1.84,0,0,1,24,26a1.36,1.36,0,0,1-1.4,1.08H6.34c0,.51,0,1,0,1.48a1.33,1.33,0,0,0,1.41,1.37H25.12a1.34,1.34,0,0,0,1.41-1.42q0-9.25-.05-18.51ZM11.13,24.52a7.07,7.07,0,0,0,3.48-.24A2.46,2.46,0,0,0,16,22.75a4.06,4.06,0,0,0,.18-.84,2.63,2.63,0,0,0-2.46-3.12,11.23,11.23,0,0,0-2.39,0c-.19,0-.25.08-.25.28,0,1.73,0,3.46,0,5.2Zm-3.68,0v-2h.23a3.6,3.6,0,0,0,1.38-.18,1.8,1.8,0,0,0,1.23-2,1.68,1.68,0,0,0-1.45-1.54,8.89,8.89,0,0,0-2.47,0c-.18,0-.23.08-.22.26v5.26c0,.07,0,.13,0,.21ZM20.62,18.8H17.11v5.75h1.31V22.23h2V21.17h-2V19.86h2.19Z"/>
    <path class="cls-1" d="M12.45,23.59V19.82a1.81,1.81,0,0,1,2.22.85,2.44,2.44,0,0,1-.09,2.08,1.6,1.6,0,0,1-1.39.83A6,6,0,0,1,12.45,23.59Z"/>
    <path class="cls-1" d="M7.45,21.48V19.87s.08-.11.12-.11a4.82,4.82,0,0,1,.76,0,.77.77,0,0,1,.67.71.86.86,0,0,1-.52.92A1.8,1.8,0,0,1,7.45,21.48Z"/>
</svg>